<svg width="18" height="22" viewBox="0 0 18 22" fill="none" xmlns="http://www.w3.org/2000/svg">
<path d="M10.1705 22C13.0897 22 15.8723 20.617 17.805 18.2057C17.9985 17.9642 18.053 17.6239 17.946 17.3243C17.8391 17.0246 17.5888 16.8158 17.2972 16.7829C11.8964 16.1762 7.82349 11.2151 7.82349 5.24259C7.82349 3.84155 8.05011 2.4683 8.49709 1.16151C8.6001 0.860452 8.54142 0.52158 8.34505 0.282965C8.14895 0.0446378 7.84774 -0.0533285 7.56453 0.0283101C3.11088 1.32193 0 5.76307 0 10.8284C0 16.9885 4.5624 22 10.1705 22ZM6.56938 2.24058C6.36284 3.2211 6.25879 4.2254 6.25879 5.24259C6.25879 11.5027 10.1567 16.7952 15.5544 18.1994C14.0372 19.5365 12.1405 20.2813 10.1705 20.2813C5.42533 20.2813 1.5647 16.0407 1.5647 10.8284C1.5647 7.09392 3.56256 3.76077 6.56938 2.24058Z" fill="black"/>
</svg>
